<?xml version="1.0" encoding="utf-8"?><svg xmlns="http://www.w3.org/2000/svg" xmlns:xlink="http://www.w3.org/1999/xlink"><symbol viewBox="0 0 512 512" id="circle-info" xmlns="http://www.w3.org/2000/svg"><!--! Font Awesome Free 6.7.2 by @fontawesome - https://fontawesome.com License - https://fontawesome.com/license/free (Icons: CC BY 4.0, Fonts: SIL OFL 1.1, Code: MIT License) Copyright 2024 Fonticons, Inc.--><path d="M256 512a256 256 0 1 0 0-512 256 256 0 1 0 0 512zm-40-176h24v-64h-24c-13.3 0-24-10.7-24-24s10.7-24 24-24h48c13.3 0 24 10.7 24 24v88h8c13.3 0 24 10.7 24 24s-10.7 24-24 24h-80c-13.3 0-24-10.7-24-24s10.7-24 24-24zm40-208a32 32 0 1 1 0 64 32 32 0 1 1 0-64z"/></symbol><symbol viewBox="0 0 512 512" id="signs-post" xmlns="http://www.w3.org/2000/svg"><!--! Font Awesome Free 6.7.2 by @fontawesome - https://fontawesome.com License - https://fontawesome.com/license/free (Icons: CC BY 4.0, Fonts: SIL OFL 1.1, Code: MIT License) Copyright 2024 Fonticons, Inc.--><path d="M224 32H64c-17.7 0-32 14.3-32 32v64c0 17.7 14.3 32 32 32h377.4c4.2 0 8.3-1.7 11.3-4.7l48-48c6.2-6.2 6.2-16.4 0-22.6l-48-48c-3-3-7.1-4.7-11.3-4.7H288c0-17.7-14.3-32-32-32s-32 14.3-32 32zm256 224c0-17.7-14.3-32-32-32H288v-32h-64v32H70.6c-4.2 0-8.3 1.7-11.3 4.7l-48 48c-6.2 6.2-6.2 16.4 0 22.6l48 48c3 3 7.1 4.7 11.3 4.7H448c17.7 0 32-14.3 32-32v-64zM288 480v-96h-64v96c0 17.7 14.3 32 32 32s32-14.3 32-32z"/></symbol><symbol viewBox="0 0 512 512" id="table" xmlns="http://www.w3.org/2000/svg"><!--! Font Awesome Free 6.7.2 by @fontawesome - https://fontawesome.com License - https://fontawesome.com/license/free (Icons: CC BY 4.0, Fonts: SIL OFL 1.1, Code: MIT License) Copyright 2024 Fonticons, Inc.--><path d="M64 256v-96h160v96H64zm0 64h160v96H64v-96zm224 96v-96h160v96H288zm160-160H288v-96h160v96zM64 32C28.7 32 0 60.7 0 96v320c0 35.3 28.7 64 64 64h384c35.3 0 64-28.7 64-64V96c0-35.3-28.7-64-64-64H64z"/></symbol><symbol viewBox="0 0 576 512" id="terminal" xmlns="http://www.w3.org/2000/svg"><!--! Font Awesome Free 6.7.2 by @fontawesome - https://fontawesome.com License - https://fontawesome.com/license/free (Icons: CC BY 4.0, Fonts: SIL OFL 1.1, Code: MIT License) Copyright 2024 Fonticons, Inc.--><path d="M9.4 86.6c-12.5-12.5-12.5-32.7 0-45.2s32.8-12.5 45.3 0l192 192c12.5 12.5 12.5 32.8 0 45.3l-192 192c-12.5 12.5-32.8 12.5-45.3 0s-12.5-32.8 0-45.3L178.7 256 9.4 86.6zM256 416h288c17.7 0 32 14.3 32 32s-14.3 32-32 32H256c-17.7 0-32-14.3-32-32s14.3-32 32-32z"/></symbol></svg>